<svg width="24" height="24" viewBox="0 0 24 24" fill="none" xmlns="http://www.w3.org/2000/svg">
<path fill-rule="evenodd" clip-rule="evenodd" d="M0 12C0 10.4294 0.31248 8.85888 0.91344 7.40784C1.5144 5.9568 2.40408 4.62528 3.5148 3.5148C4.62528 2.40408 5.9568 1.5144 7.40784 0.91344C8.85888 0.31248 10.4294 0 12 0C13.5706 0 15.1411 0.31248 16.5922 0.91344C18.0432 1.5144 19.3747 2.40408 20.4852 3.5148C21.5959 4.62528 22.4856 5.9568 23.0866 7.40784C23.6875 8.85888 24 10.4294 24 12C24 13.5706 23.6875 15.1411 23.0866 16.5922C22.4856 18.0432 21.5959 19.3747 20.4852 20.4852C19.3747 21.5959 18.0432 22.4856 16.5922 23.0866C15.1411 23.6875 13.5706 24 12 24C10.4294 24 8.85888 23.6875 7.40784 23.0866C5.9568 22.4856 4.62528 21.5959 3.5148 20.4852C2.40408 19.3747 1.5144 18.0432 0.91344 16.5922C0.31248 15.1411 0 13.5706 0 12Z" fill="url(#paint0_linear)"/>
<path fill-rule="evenodd" clip-rule="evenodd" d="M12.6202 6.582H11.3799V17.4185H12.6202V6.582Z" fill="white"/>
<path fill-rule="evenodd" clip-rule="evenodd" d="M13.3241 11.6796V10.3846C14.3189 9.89519 15.0039 8.87135 15.0039 7.68767C15.0039 6.02927 13.6589 4.68431 12 4.68431C10.1374 4.68431 8.79242 6.02927 8.79242 7.68767C8.79242 8.10575 8.87834 8.50391 9.0845 8.97695L9.61418 7.25495L10.6759 7.58687L9.73442 11.1706L6.07922 9.82583L6.52346 8.77775L7.88666 9.24431C7.63994 8.70935 7.59146 8.31599 7.59146 7.68767C7.59146 5.36543 9.47402 3.48287 12 3.48287C14.3223 3.48287 16.2048 5.36543 16.2048 7.68767C16.2048 9.54719 14.9974 11.1247 13.3241 11.6796Z" fill="white"/>
<path fill-rule="evenodd" clip-rule="evenodd" d="M10.6759 12.3209V13.6159C9.68112 14.1055 8.99616 15.1291 8.99616 16.3128C8.99616 17.9712 10.3411 19.3162 12 19.3162C13.8626 19.3162 15.2076 17.9712 15.2076 16.3128C15.2076 15.8947 15.1217 15.4966 14.9155 15.0235L14.3858 16.7455L13.3241 16.4136L14.2656 12.8299L17.9208 14.1749L17.4766 15.2227L16.1134 14.7562C16.3601 15.2911 16.4086 15.6845 16.4086 16.3128C16.4086 18.635 14.526 20.5176 12 20.5176C9.67776 20.5176 7.7952 18.635 7.7952 16.3128C7.7952 14.4533 9.00264 12.8758 10.6759 12.3209Z" fill="white"/>
<defs>
<linearGradient id="paint0_linear" x1="36" y1="12" x2="12" y2="36" gradientUnits="userSpaceOnUse">
<stop stop-color="#0077FC"/>
<stop offset="1" stop-color="#095EB5"/>
</linearGradient>
</defs>
</svg>
